<svg width="23" height="24" viewBox="0 0 23 24" fill="none" xmlns="http://www.w3.org/2000/svg">
<path d="M19.4448 20.9306L19.4465 20.9289L21.4445 18.9211C21.445 18.9206 21.4455 18.9201 21.446 18.9196C22.1851 18.1788 22.1846 16.9783 21.4445 16.2381L19.3992 14.1928L19.3992 14.1928C18.6586 13.4522 17.4569 13.4522 16.7162 14.1928L15.3207 15.5884C15.3206 15.5884 15.3206 15.5885 15.3206 15.5885C15.2203 15.6886 14.7844 15.8848 13.7436 15.5111C12.7905 15.1688 11.6407 14.4378 10.5737 13.3707C9.50665 12.3036 8.79015 11.1685 8.46087 10.2321C8.10371 9.21658 8.29815 8.78297 8.40661 8.67451L9.80228 7.27883L9.8023 7.27882C10.5429 6.53818 10.5429 5.33651 9.80228 4.59587L7.75701 2.55059L7.75699 2.55058C7.01635 1.80997 5.81469 1.80995 5.07404 2.55059L3.06955 4.55509C3.06954 4.5551 3.06952 4.55512 3.06951 4.55513C1.66668 5.95785 1.79834 8.19639 2.54686 10.2673C3.32523 12.4209 4.89532 14.8038 7.04318 16.9517L7.04319 16.9517C9.19112 19.0997 11.5751 20.671 13.7297 21.4506C15.8012 22.2001 18.0416 22.3338 19.4448 20.9306Z" stroke="#0C0C0C" stroke-width="2"/>
</svg>
