<svg width="25" height="24" viewBox="0 0 25 24" fill="none" xmlns="http://www.w3.org/2000/svg">
<path d="M2.99402 4C2.99402 2.89543 3.88945 2 4.99402 2H8.99402C10.0986 2 10.994 2.89543 10.994 4V8C10.994 9.10457 10.0986 10 8.99402 10H4.99402C3.88945 10 2.99402 9.10457 2.99402 8V4Z" stroke="black" stroke-width="2" stroke-linejoin="round"/>
<path d="M14.994 4C14.994 2.89543 15.8894 2 16.994 2H20.994C22.0986 2 22.994 2.89543 22.994 4V8C22.994 9.10457 22.0986 10 20.994 10H16.994C15.8894 10 14.994 9.10457 14.994 8V4Z" stroke="black" stroke-width="2" stroke-linejoin="round"/>
<path d="M2.99402 16C2.99402 14.8954 3.88945 14 4.99402 14H8.99402C10.0986 14 10.994 14.8954 10.994 16V20C10.994 21.1046 10.0986 22 8.99402 22H4.99402C3.88945 22 2.99402 21.1046 2.99402 20V16Z" stroke="black" stroke-width="2" stroke-linejoin="round"/>
<path d="M14.994 16C14.994 14.8954 15.8894 14 16.994 14H20.994C22.0986 14 22.994 14.8954 22.994 16V20C22.994 21.1046 22.0986 22 20.994 22H16.994C15.8894 22 14.994 21.1046 14.994 20V16Z" stroke="black" stroke-width="2" stroke-linejoin="round"/>
</svg>
