<svg width="25" height="24" viewBox="0 0 25 24" fill="none" xmlns="http://www.w3.org/2000/svg">
<g id="Huge-icon/grid/outline/grid 02">
<g id="Vector">
<path d="M2.99414 4C2.99414 2.89543 3.88957 2 4.99414 2H8.99414C10.0987 2 10.9941 2.89543 10.9941 4V8C10.9941 9.10457 10.0987 10 8.99414 10H4.99414C3.88957 10 2.99414 9.10457 2.99414 8V4Z" stroke="black" stroke-width="2" stroke-linejoin="round"/>
<path d="M14.9941 4C14.9941 2.89543 15.8896 2 16.9941 2H20.9941C22.0987 2 22.9941 2.89543 22.9941 4V8C22.9941 9.10457 22.0987 10 20.9941 10H16.9941C15.8896 10 14.9941 9.10457 14.9941 8V4Z" stroke="black" stroke-width="2" stroke-linejoin="round"/>
<path d="M2.99414 16C2.99414 14.8954 3.88957 14 4.99414 14H8.99414C10.0987 14 10.9941 14.8954 10.9941 16V20C10.9941 21.1046 10.0987 22 8.99414 22H4.99414C3.88957 22 2.99414 21.1046 2.99414 20V16Z" stroke="black" stroke-width="2" stroke-linejoin="round"/>
<path d="M14.9941 16C14.9941 14.8954 15.8896 14 16.9941 14H20.9941C22.0987 14 22.9941 14.8954 22.9941 16V20C22.9941 21.1046 22.0987 22 20.9941 22H16.9941C15.8896 22 14.9941 21.1046 14.9941 20V16Z" stroke="black" stroke-width="2" stroke-linejoin="round"/>
</g>
</g>
</svg>
