<svg width="23" height="24" viewBox="0 0 23 24" fill="none" xmlns="http://www.w3.org/2000/svg">
<path id="Vector" d="M19.4449 20.9306L19.4467 20.9289L21.4446 18.9211C21.4451 18.9206 21.4456 18.9201 21.4461 18.9196C22.1852 18.1788 22.1848 16.9783 21.4446 16.2381L19.3993 14.1928L19.3993 14.1928C18.6587 13.4522 17.457 13.4522 16.7164 14.1928L15.3208 15.5884C15.3208 15.5884 15.3207 15.5885 15.3207 15.5885C15.2204 15.6886 14.7845 15.8848 13.7437 15.5111C12.7906 15.1688 11.6408 14.4378 10.5738 13.3707C9.50678 12.3036 8.79028 11.1685 8.46099 10.2321C8.10384 9.21658 8.29827 8.78297 8.40673 8.67451L9.80241 7.27883L9.80242 7.27882C10.543 6.53818 10.5431 5.33651 9.80241 4.59587L7.75713 2.55059L7.75711 2.55058C7.01647 1.80997 5.81481 1.80995 5.07417 2.55059L3.06967 4.55509C3.06966 4.5551 3.06964 4.55512 3.06963 4.55513C1.6668 5.95785 1.79846 8.19639 2.54698 10.2673C3.32536 12.4209 4.89545 14.8038 7.0433 16.9517L7.04331 16.9517C9.19124 19.0997 11.5752 20.671 13.7298 21.4506C15.8013 22.2001 18.0417 22.3338 19.4449 20.9306Z" stroke="#0C0C0C" stroke-width="2"/>
</svg>
