<svg xmlns="http://www.w3.org/2000/svg"><symbol fill="none" id="arrow-swiper-next" viewBox="0 0 24 24"><rect x="24" width="24" height="24" rx="12" transform="rotate(90 24 0)" fill="#205CE1"/><path d="M8 4.25h4.253l6.903 8.011-6.903 7.989H8l6.823-8L8 4.25Z" fill="#fff"/></symbol><symbol fill="none" id="arrow-swiper-prev" viewBox="0 0 24 24"><rect width="24" height="24" rx="12" transform="matrix(0 1 1 0 0 0)" fill="#205CE1"/><path d="M16 4.25h-4.253l-6.903 8.011 6.903 7.989H16l-6.823-8 6.823-8Z" fill="#fff"/></symbol><symbol fill="none" id="arrow" viewBox="0 0 44 44"><g clip-path="url(#a)"><path d="M25.015 0H13.321l14.684 16.993H0v10.075h28.005L13.32 44h11.694L44 22.03 25.015 0Z" fill="#fff"/></g><defs><clipPath id="a"><path fill="#fff" d="M0 0h44v44H0z"/></clipPath></defs></symbol><symbol fill="none" id="catalog" viewBox="0 0 25 24"><path d="M2.994 4a2 2 0 0 1 2-2h4a2 2 0 0 1 2 2v4a2 2 0 0 1-2 2h-4a2 2 0 0 1-2-2V4Zm12 0a2 2 0 0 1 2-2h4a2 2 0 0 1 2 2v4a2 2 0 0 1-2 2h-4a2 2 0 0 1-2-2V4Zm-12 12a2 2 0 0 1 2-2h4a2 2 0 0 1 2 2v4a2 2 0 0 1-2 2h-4a2 2 0 0 1-2-2v-4Zm12 0a2 2 0 0 1 2-2h4a2 2 0 0 1 2 2v4a2 2 0 0 1-2 2h-4a2 2 0 0 1-2-2v-4Z" stroke="#000" stroke-width="2" stroke-linejoin="round"/></symbol><symbol fill="none" id="contact" viewBox="0 0 23 24"><path d="m19.445 20.93.002-.001 1.998-2.008.001-.001a1.898 1.898 0 0 0-.001-2.682l-2.046-2.045a1.898 1.898 0 0 0-2.683 0l-1.395 1.395c-.1.1-.537.297-1.577-.077-.953-.342-2.103-1.073-3.17-2.14-1.067-1.067-1.784-2.203-2.113-3.139-.357-1.015-.163-1.449-.054-1.557l1.395-1.396a1.897 1.897 0 0 0 0-2.683L7.757 2.55a1.898 1.898 0 0 0-2.683 0L3.07 4.555c-1.403 1.403-1.272 3.641-.523 5.712.778 2.154 2.348 4.537 4.496 6.685 2.148 2.148 4.532 3.719 6.687 4.499 2.071.75 4.312.883 5.715-.52Z" stroke="#0C0C0C" stroke-width="2"/></symbol><symbol fill="none" id="search" viewBox="0 0 20 20"><path d="m18.333 18.333-1.667-1.666m-15-7.084a7.917 7.917 0 1 1 15.833 0 7.917 7.917 0 0 1-15.833 0Z" stroke="#0C0C0C" stroke-width="2" stroke-linecap="square" stroke-linejoin="round"/></symbol><symbol fill="none" id="Union" viewBox="0 0 24 24"><path fill-rule="evenodd" clip-rule="evenodd" d="M13 0h-2v11H0v2h11v11h2V13h11v-2H13V0Z" fill="#0C0C0C"/></symbol></svg>